Motion_pl09
version=1
nRows=5
nColumns=43
inDegrees=yes
endheader
time	pelvis_tilt	pelvis_list	pelvis_rotation	pelvis_tx	pelvis_ty	pelvis_tz	hip_flexion_r	hip_adduction_r	hip_rotation_r	knee_angle_r	ankle_angle_r	subtalar_angle_r	mtp_angle_r	hip_flexion_l	hip_adduction_l	hip_rotation_l	knee_angle_l	ankle_angle_l	subtalar_angle_l	mtp_angle_l	lumbar_extension	lumbar_bending	lumbar_rotation	neck_flexion	neck_lateral_bending	neck_rotation	arm_flex_r	arm_add_r	arm_rot_r	elbow_flex_r	pro_sup_r	wrist_flex_r	wrist_dev_r	hand_finger_flex_r	arm_flex_l	arm_add_l	arm_rot_l	elbow_flex_l	pro_sup_l	wrist_flex_l	wrist_dev_l	hand_finger_flex_l
      0.00250000	     -1.52104195	      9.28453828	     92.49988571	      0.01275842	      1.98265871	      1.91859475	     37.48713098	     -8.22479533	     -2.39933404	    -98.66541714	     28.10829070	     -7.17268771	     -4.75779670	     37.80032869	     -3.28389078	      1.07183924	    -95.76658341	     28.62303604	    -12.62966304	     -3.55242436	    -52.94996274	      1.27891495	     -2.77882324	      5.96217071	      2.00078705	     -2.14188485	     -5.46012813	    -27.79433287	    -11.17976700	     98.97846594	    136.95925653	    -65.83392273	    -13.13341631	     31.75905646	     -4.20485469	    -26.12827630	    -27.98799243	    100.79771704	    144.71121589	    -52.38397805	     -3.49131993	     65.00227738
      0.00500000	     -1.51681619	      9.31542670	     92.50712987	      0.01266079	      1.98209651	      1.91859768	     37.52227762	     -8.21504408	     -2.37468331	    -98.78232973	     28.11866263	     -7.17414256	     -4.75545425	     37.83386366	     -3.26616638	      1.08958923	    -95.87865802	     28.63313788	    -12.62279506	     -3.55172847	    -53.10972188	      1.28953977	     -2.78011278	      6.06240283	      2.00002744	     -2.13048922	     -5.68579500	    -27.61721063	    -10.94440444	     98.79433365	    136.95478590	    -65.77074325	    -13.12248991	     31.78918507	     -4.44556599	    -25.91175424	    -27.75527935	    100.60938132	    144.72332198	    -52.32003617	     -3.47839647	     65.02336066
      0.00750000	     -1.51999629	      9.36915317	     92.51291807	      0.01252091	      1.98139158	      1.91850037	     37.56265812	     -8.23137637	     -2.34547711	    -98.98471083	     28.14076550	     -7.16882702	     -4.74888788	     37.89218075	     -3.24186600	      1.12728079	    -96.10873389	     28.66288844	    -12.60607964	     -3.54979979	    -53.23984581	      1.29713643	     -2.79029668	      6.21476987	      1.96176094	     -2.07799655	     -5.87520721	    -27.53126364	    -10.72861071	     98.43944252	    136.88241972	    -65.64766492	    -13.05038669	     31.85322306	     -4.68025881	    -25.78842328	    -27.50053778	    100.25908039	    144.74346294	    -52.16778493	     -3.42842897	     65.07494497
      0.01000000	     -1.54837152	      9.19363159	     92.61172906	      0.01219615	      1.98022404	      1.91857436	     37.86499732	     -8.35354301	     -2.35338461	    -99.20660305	     28.20403220	     -7.02132561	     -4.70100814	     38.23257556	     -3.11815818	      1.22704514	    -96.32691598	     28.72706028	    -12.44730150	     -3.56929152	    -53.06134379	      1.37172489	     -2.88213202	      5.89584151	      1.84314991	     -1.80165209	     -6.06056408	    -27.52071574	    -10.25564834	     98.25308071	    136.21120219	    -65.31317816	    -12.64199147	     32.21402667	     -4.88670372	    -25.64288629	    -27.20317901	     99.96632671	    144.85961701	    -51.30098290	     -3.04816125	     65.46612698
      0.01250000	     -1.54253130	      9.22610305	     92.61198701	      0.01210534	      1.97956416	      1.91854662	     37.92141175	     -8.35045372	     -2.32893033	    -99.36402029	     28.21240024	     -7.03112756	     -4.69595159	     38.28699479	     -3.10556316	      1.25363657	    -96.49038892	     28.73651289	    -12.46262487	     -3.57092103	    -53.21253622	      1.37432696	     -2.88586087	      6.09011495	      1.84404561	     -1.80145797	     -6.26140845	    -27.37543961	    -10.04804258	     97.95888865	    136.17086433	    -65.23189500	    -12.61378900	     32.25584067	     -5.12320412	    -25.45470083	    -26.98254921	     99.69878310	    144.87593908	    -51.18291656	     -3.01021811	     65.50598904
